Coordinates
version=1
nRows=18
nColumns=32
inDegrees=yes

Units are S.I. units (second, meters, Newtons, ...)
If the header above contains a line with 'inDegrees', this indicates whether rotational values are in degrees (yes) or radians (no).

endheader
time	pelvis_tilt	pelvis_list	pelvis_rotation	pelvis_tx	pelvis_ty	pelvis_tz	hip_flexion_r	hip_adduction_r	hip_rotation_r	knee_angle_r	knee_adduction_r	med_cond_adduction_r	lat_cond_adduction_r	patella_r_constrained_knee_angle	ankle_angle_r	subtalar_angle_r	mtp_angle_r	hip_flexion_l	hip_adduction_l	hip_rotation_l	knee_angle_l	knee_adduction_l	med_cond_adduction_l	lat_cond_adduction_l	patella_l_constrained_knee_angle	ankle_angle_l	subtalar_angle_l	mtp_angle_l	lumbar_extension	lumbar_bending	lumbar_rotation
      2.65500000	      7.84429976	     -3.03627939	     -1.95879792	      0.15236247	      0.47881532	     -1.21345193	     79.79759239	    -45.89558026	      0.19708561	   -119.91257780	     -9.82338751	     -0.00000000	     -0.00000000	     -2.09286930	     29.53655809	     16.77229326	      0.00000000	     87.72335538	    -49.49212400	     10.02482218	   -119.93497323	     -9.75705135	      0.00000000	      0.00000000	     -2.09326017	     29.28792120	     19.29375853	     -0.00000000	    -51.09778475	      2.93115358	      0.17814605
      2.66000000	      7.29625776	     -3.06527691	     -2.01711026	      0.15237869	      0.47873987	     -1.21334353	     80.32966133	    -45.75483412	      0.12319464	   -119.90876829	     -9.82034942	     -0.00000000	     -0.00000000	     -2.09280281	     29.52496126	     16.74430696	     -0.00000000	     88.38849192	    -49.47559165	     10.09226183	   -119.93283246	     -9.75305954	     -0.00000000	     -0.00000000	     -2.09322281	     29.25306078	     19.29321078	     -0.00000000	    -50.40152084	      2.93397539	      0.18929813
      2.66500000	      6.72331142	     -2.58589358	     -2.09531303	      0.15238923	      0.47869859	     -1.21289692	     81.56520933	    -45.70595948	      0.93610903	   -119.90655030	     -9.81424301	     -0.00000000	     -0.00000000	     -2.09276410	     29.50465646	     16.81721479	      0.00000000	     88.33565032	    -49.44636889	      9.18351107	   -119.92930681	     -9.75226103	      0.00000000	      0.00000000	     -2.09316127	     29.22284446	     19.27109921	     -0.00000000	    -49.63872281	      2.46026295	     -0.05175790
      2.67000000	      6.12838672	     -3.11072306	     -2.14312993	      0.15240227	      0.47857799	     -1.21308543	     81.47809744	    -45.45124151	     -0.00945346	   -119.89941296	     -9.81311573	     -0.00000000	     -0.00000000	     -2.09263953	     29.49750934	     16.67911130	      0.00000000	     89.78471421	    -49.43703667	     10.21126388	   -119.92750384	     -9.74499003	      0.00000000	      0.00000000	     -2.09312981	     29.16598392	     19.28941852	      0.00000000	    -48.90300860	      2.97490515	      0.27696464
      2.67500000	      5.51501828	     -3.15480957	     -2.19883130	      0.15246944	      0.47849571	     -1.21297967	     82.04754121	    -45.31620543	     -0.12338729	   -119.89368527	     -9.80889431	      0.00000000	      0.00000000	     -2.09253956	     29.48106677	     16.63953942	     -0.00000000	     90.54939285	    -49.41237963	     10.31621881	   -119.92404875	     -9.74044895	     -0.00000000	     -0.00000000	     -2.09306950	     29.11477391	     19.28652588	      0.00000000	    -48.09039023	      3.02865190	      0.32271136
      2.68000000	      4.89119470	     -2.70241244	     -2.29391280	      0.15242397	      0.47848020	     -1.21250153	     83.27848401	    -45.19719206	      0.62810906	   -119.88926386	     -9.80132871	      0.00000000	      0.00000000	     -2.09246239	     29.45863630	     16.68007247	      0.00000000	     90.58553248	    -49.39622643	      9.46693941	   -119.91927459	     -9.73946866	     -0.00000000	     -0.00000000	     -2.09298618	     29.07564425	     19.27059531	      0.00000000	    -47.25003978	      2.59334175	      0.17487542
      2.68500000	      4.21717886	     -2.66007580	     -2.33257901	      0.15247952	      0.47836394	     -1.21237889	     84.02239427	    -45.08074068	      0.65909511	   -119.88253249	     -9.79563900	     -0.00000000	     -0.00000000	     -2.09234491	     29.43444992	     16.63965992	     -0.00000000	     91.28967584	    -49.35189323	      9.39922392	   -119.91501694	     -9.73424401	      0.00000000	      0.00000000	     -2.09291187	     29.00892074	     19.26029164	      0.00000000	    -46.34046241	      2.55196511	      0.12162410
      2.69000000	      3.62193262	     -3.14217125	     -2.39512812	      0.15252489	      0.47845040	     -1.21250930	     83.96095969	    -44.86099079	     -0.24057486	   -119.86890027	     -9.79441144	      0.00000000	      0.00000000	     -2.09210698	     29.42445409	     16.55902205	      0.00000000	     92.65833741	    -49.34131080	     10.33025788	   -119.91081621	     -9.72593425	     -0.00000000	     -0.00000000	     -2.09283855	     28.91547851	     19.27780110	      0.00000000	    -45.55697946	      3.05513583	      0.44208255
      2.69500000	      2.99587564	     -3.10819450	     -2.46282616	      0.15254461	      0.47854648	     -1.21232811	     84.61281843	    -44.71469196	     -0.25058677	   -119.85701789	     -9.78871765	      0.00000000	      0.00000000	     -2.09189959	     29.40165734	     16.53168220	     -0.00000000	     93.29895395	    -49.32481345	     10.26940173	   -119.90431470	     -9.72131693	      0.00000000	      0.00000000	     -2.09272508	     28.83848860	     19.27114969	      0.00000000	    -44.68138219	      3.04401443	      0.47877131
      2.70000000	      2.30013784	     -2.77622181	     -2.47715511	      0.15262745	      0.47856840	     -1.21207046	     85.72288845	    -44.68893646	      0.25662815	   -119.84538475	     -9.78115797	      0.00000000	      0.00000000	     -2.09169656	     29.37360796	     16.60622540	      0.00000000	     93.58349115	    -49.25510177	      9.63101286	   -119.89620871	     -9.71641693	      0.00000000	      0.00000000	     -2.09258360	     28.75939100	     19.25079961	     -0.00000000	    -43.69435857	      2.75222320	      0.29122043
      2.70500000	      1.61353103	     -2.68566985	     -2.55666430	      0.15267758	      0.47859751	     -1.21178626	     86.51229890	    -44.53668810	      0.31799316	   -119.82974837	     -9.77198751	     -0.00000000	      0.00000000	     -2.09142365	     29.33820159	     16.51306951	      0.00000000	     94.21293828	    -49.24404870	      9.49500985	   -119.88694936	     -9.71257259	      0.00000000	      0.00000000	     -2.09242200	     28.64860730	     19.24339669	      0.00000000	    -42.71309106	      2.64772964	      0.31380696
      2.71000000	      0.96080034	     -3.06665480	     -2.60917014	      0.15272616	      0.47876181	     -1.21191355	     86.61121363	    -44.35174102	     -0.41200341	   -119.79829155	     -9.76991475	     -0.00000000	      0.00000000	     -2.09087463	     29.32203157	     16.41934242	     -0.00000000	     95.49195091	    -49.20656322	     10.20671411	   -119.87727070	     -9.70195457	      0.00000000	      0.00000000	     -2.09225307	     28.51443890	     19.25533369	     -0.00000000	    -41.79195785	      3.04056957	      0.42141986
      2.71500000	      0.29756011	     -3.20956175	     -2.62614689	      0.15286133	      0.47896723	     -1.21192999	     87.02782508	    -44.27575529	     -0.75242221	   -119.76140803	     -9.76356631	      0.00000000	      0.00000000	     -2.09023089	     29.29566888	     16.40238079	     -0.00000000	     96.40791764	    -49.14024982	     10.45403616	   -119.86455745	     -9.69563124	     -0.00000000	     -0.00000000	     -2.09203118	     28.36146025	     19.24827424	     -0.00000000	    -40.81769511	      3.20966512	      0.42070248
      2.72000000	     -0.38735447	     -3.19199760	     -2.69185618	      0.15287819	      0.47922171	     -1.21178186	     87.66412891	    -44.12384227	     -0.82587486	   -119.71351675	     -9.75624494	      0.00000000	      0.00000000	     -2.08939503	     29.26114821	     16.35083223	     -0.00000000	     97.11165736	    -49.10799954	     10.40042624	   -119.84638176	     -9.68805303	      0.00000000	      0.00000000	     -2.09171396	     28.22410630	     19.24312468	     -0.00000000	    -39.82144713	      3.29931180	      0.55184763
      2.72500000	     -1.00867864	     -3.16334422	     -2.74782848	      0.15295489	      0.47969828	     -1.21164305	     88.20899711	    -44.00740372	     -0.90154786	   -119.64279051	     -9.74810253	     -0.00000000	     -0.00000000	     -2.08816062	     29.22769089	     16.38299682	      0.00000000	     97.69187981	    -49.10342135	     10.29784098	   -119.82135379	     -9.68039522	     -0.00000000	     -0.00000000	     -2.09127714	     28.07921494	     19.23773175	      0.00000000	    -38.87658404	      3.31100443	      0.58204253
      2.73000000	     -1.64974876	     -3.13708882	     -2.77026215	      0.15303967	      0.48021395	     -1.21158911	     88.75924975	    -43.93740532	     -0.98325678	   -119.54332462	     -9.73799524	     -0.00000000	     -0.00000000	     -2.08642461	     29.18980297	     16.40273019	     -0.00000000	     98.28219117	    -49.05661736	     10.17908032	   -119.78531654	     -9.67339683	     -0.00000000	     -0.00000000	     -2.09064817	     27.92909483	     19.22688880	     -0.00000000	    -37.91190211	      3.40501797	      0.66375030
      2.73500000	     -2.26818784	     -3.02018059	     -2.78910585	      0.15310894	      0.48092064	     -1.21149824	     89.36109154	    -43.87303253	     -0.93613450	   -119.40675253	     -9.72752608	      0.00000000	      0.00000000	     -2.08404098	     29.14429259	     16.41336817	      0.00000000	     98.67517528	    -49.01868178	      9.85814395	   -119.72965584	     -9.66778701	     -0.00000000	     -0.00000000	     -2.08967671	     27.77923588	     19.21346155	      0.00000000	    -36.94853398	      3.27063168	      0.48732700
      2.74000000	     -2.84468191	     -3.14452560	     -2.77620613	      0.15319657	      0.48193747	     -1.21168557	     89.54055981	    -43.85075755	     -1.33000516	   -119.18952402	     -9.71578554	      0.00000000	      0.00000000	     -2.08024963	     29.10099343	     16.42117383	     -0.00000000	     99.29575495	    -48.92793824	      9.91241235	   -119.64764408	     -9.65920866	      0.00000000	      0.00000000	     -2.08824533	     27.60771547	     19.20240199	      0.00000000	    -36.06336763	      3.45768651	      0.41227565
